<?xml version="1.0" standalone="no"?>
<!DOCTYPE svg PUBLIC "-//W3C//DTD SVG 20010904//EN"
 "http://www.w3.org/TR/2001/REC-SVG-20010904/DTD/svg10.dtd">
<svg version="1.0" xmlns="http://www.w3.org/2000/svg"
 width="3597.000000pt" height="3597.000000pt" viewBox="0 0 3597.000000 3597.000000"
 preserveAspectRatio="xMidYMid meet">
<metadata>
Created by potrace 1.11, written by Peter Selinger 2001-2013
</metadata>
<g transform="translate(0.000000,3597.000000) scale(0.100000,-0.100000)"
fill="#000000" stroke="none">
<path d="M2768 27685 c-2 -2 -30 -5 -63 -9 -466 -45 -879 -263 -1169 -616
-100 -122 -222 -354 -269 -510 -21 -70 -59 -239 -67 -300 -1 -8 -3 -100 -5
-205 -4 -251 26 -428 105 -625 133 -335 418 -621 779 -784 126 -57 300 -112
411 -131 19 -3 42 -8 50 -10 33 -10 167 -25 259 -30 180 -10 217 -16 328 -54
127 -44 226 -105 324 -201 123 -121 197 -256 216 -395 12 -80 6 -216 -12 -275
-8 -30 -17 -59 -18 -65 -11 -37 -56 -119 -93 -166 -145 -189 -405 -301 -680
-293 -325 9 -577 149 -694 387 -44 90 -46 97 -62 208 l-11 76 -455 0 -454 0 6
-96 c6 -99 24 -218 50 -336 16 -68 64 -195 110 -290 63 -129 144 -246 241
-348 68 -71 215 -197 231 -197 4 0 15 -7 25 -16 41 -37 210 -122 334 -169 358
-134 779 -165 1135 -84 25 6 54 12 65 15 62 12 225 73 322 119 263 125 492
323 626 539 18 29 37 61 44 72 88 140 171 404 192 614 8 84 7 375 -3 416 -2
12 -7 44 -11 72 -3 29 -10 65 -15 82 -5 16 -7 30 -5 30 3 0 0 11 -5 25 -5 14
-12 36 -14 48 -18 97 -119 323 -196 441 -232 352 -570 569 -1045 672 -86 19
-233 36 -350 40 -119 5 -205 16 -300 38 -72 17 -218 88 -270 131 -158 133
-236 274 -252 459 -4 44 -7 83 -6 86 1 3 4 37 8 75 14 152 78 304 172 410 45
50 135 116 208 153 70 34 102 45 200 69 52 12 145 19 228 18 308 -7 541 -123
663 -332 37 -61 72 -170 79 -245 4 -35 9 -65 11 -67 2 -2 202 -4 445 -5 307
-1 443 2 450 10 5 6 7 13 5 15 -2 2 -7 42 -10 89 -4 47 -8 92 -10 100 -1 8 -6
38 -10 65 -13 79 -55 222 -92 313 -80 192 -170 328 -324 483 -164 166 -317
267 -533 354 -118 47 -314 100 -407 110 -30 3 -67 8 -82 11 -29 6 -325 14
-330 9z"/>
<path d="M18908 27685 c-2 -2 -45 -6 -95 -9 -51 -4 -103 -9 -115 -11 -13 -2
-41 -6 -63 -9 -81 -11 -120 -17 -135 -21 -8 -2 -31 -7 -50 -10 -61 -10 -191
-45 -305 -82 -650 -210 -1184 -670 -1491 -1284 -107 -214 -194 -465 -239 -694
-5 -22 -9 -42 -10 -45 -6 -26 -16 -84 -20 -124 -4 -28 -8 -52 -10 -55 -2 -4
-6 -47 -10 -96 -4 -50 -9 -103 -11 -120 -5 -37 -4 -416 1 -470 2 -22 6 -71 10
-110 3 -38 8 -77 10 -85 2 -8 7 -40 10 -70 4 -30 15 -98 27 -150 108 -509 315
-921 642 -1283 88 -97 164 -168 283 -268 51 -42 217 -157 292 -200 302 -179
661 -305 1006 -353 22 -4 51 -8 65 -11 137 -24 568 -24 715 0 60 10 91 15 130
21 68 10 275 62 370 92 363 118 720 328 995 586 79 75 78 72 34 115 -21 21
-165 165 -318 320 l-279 282 -31 -28 c-16 -15 -35 -33 -41 -39 -52 -56 -243
-188 -357 -247 -359 -187 -712 -247 -1143 -192 -96 12 -295 66 -402 109 -536
215 -899 644 -1042 1231 -41 172 -56 305 -55 520 0 218 9 313 49 501 115 539
431 964 885 1190 78 38 222 97 265 108 6 2 30 8 54 15 145 41 335 65 521 65
164 0 253 -8 380 -34 305 -63 594 -206 827 -409 l91 -80 316 315 c174 174 316
318 316 320 0 29 -378 340 -475 389 -16 9 -52 30 -80 47 -152 94 -416 206
-616 262 -174 48 -290 70 -489 92 -59 6 -407 14 -412 9z"/>
<path d="M23720 27669 c-160 -15 -214 -23 -383 -54 -53 -10 -296 -79 -332 -94
-11 -5 -58 -24 -105 -42 -191 -74 -444 -222 -613 -358 -340 -275 -642 -700
-789 -1111 -11 -30 -23 -64 -28 -75 -23 -52 -83 -268 -106 -380 -2 -11 -6 -31
-9 -45 -13 -62 -27 -148 -40 -260 -19 -151 -23 -396 -12 -575 8 -108 10 -135
22 -218 4 -23 9 -58 11 -77 5 -30 36 -189 49 -246 63 -278 222 -646 389 -897
130 -196 312 -403 465 -528 29 -24 59 -48 65 -54 6 -5 27 -22 46 -36 282 -208
582 -346 930 -428 110 -26 157 -34 300 -56 169 -25 656 -25 787 -1 10 2 38 7
63 10 100 14 144 22 281 56 844 208 1485 816 1778 1688 52 153 109 389 126
522 3 25 8 56 10 70 15 104 19 197 20 415 0 138 -4 279 -8 315 -16 129 -18
146 -28 205 -101 608 -365 1142 -763 1539 -265 265 -568 452 -936 579 -86 30
-248 74 -306 83 -21 3 -42 8 -45 9 -3 2 -28 7 -55 10 -27 4 -56 8 -64 10 -8 3
-40 7 -70 10 -30 3 -71 8 -90 11 -58 9 -469 11 -560 3z m420 -884 c233 -17
433 -71 636 -172 100 -49 284 -169 325 -212 8 -9 28 -27 45 -41 27 -24 87 -88
160 -171 137 -156 289 -461 358 -719 25 -96 27 -107 41 -190 4 -25 9 -53 11
-64 12 -63 18 -181 19 -321 0 -146 -10 -319 -19 -334 -2 -3 -7 -28 -10 -56
-18 -135 -104 -409 -176 -555 -263 -537 -702 -858 -1296 -945 -72 -10 -388
-13 -468 -4 -67 8 -116 17 -293 55 -28 5 -155 50 -203 71 -364 158 -642 428
-833 809 -24 49 -48 100 -52 114 -4 14 -13 39 -20 55 -89 211 -140 495 -139
790 0 564 192 1064 543 1416 109 108 153 145 266 219 160 105 376 191 575 229
92 17 121 21 230 27 58 4 106 7 107 8 3 2 111 -2 193 -9z"/>
<path d="M9715 27611 c-2 -4 -3 -1227 -4 -2718 l0 -2711 455 -1 c419 0 454 2
455 17 0 9 1 772 1 1695 l1 1678 24 -42 c12 -22 23 -43 23 -44 0 -2 52 -111
116 -242 64 -131 154 -314 199 -408 83 -170 194 -398 405 -830 62 -126 150
-306 195 -400 45 -93 129 -264 185 -380 56 -115 142 -291 190 -390 48 -99 140
-287 203 -417 l116 -237 425 0 425 1 18 31 c11 18 28 55 40 82 12 28 48 106
81 175 32 69 87 186 122 260 34 74 89 191 121 259 33 68 59 125 59 127 0 2 34
74 75 159 41 86 75 158 75 160 0 1 29 64 65 140 36 75 65 138 65 140 0 2 34
74 75 160 41 87 75 159 75 160 0 2 34 74 75 160 41 87 75 159 75 160 0 2 26
59 59 127 32 68 85 182 119 253 33 72 78 169 101 218 66 141 116 246 157 337
21 46 53 113 70 149 l31 66 1 -1650 c0 -908 1 -1655 1 -1662 1 -10 103 -12
454 -10 l452 2 2 2700 c0 1485 -1 2708 -3 2717 -4 15 -43 16 -463 17 l-459 0
-28 -62 c-15 -34 -52 -114 -82 -177 -30 -63 -67 -142 -82 -175 -44 -97 -169
-363 -212 -455 -116 -245 -148 -312 -148 -315 0 -2 -58 -126 -150 -320 -21
-44 -49 -105 -63 -135 -14 -30 -46 -100 -72 -155 -26 -55 -60 -127 -75 -160
-15 -33 -49 -105 -75 -160 -26 -55 -63 -134 -82 -175 -19 -41 -51 -109 -70
-150 -20 -41 -48 -102 -63 -135 -15 -33 -48 -103 -73 -155 -100 -212 -126
-267 -150 -320 -46 -101 -164 -353 -231 -494 -36 -76 -66 -139 -66 -141 0 -2
-26 -59 -59 -126 -62 -131 -96 -204 -155 -333 l-37 -79 -39 79 c-49 97 -324
661 -430 879 -82 170 -204 420 -395 810 -65 132 -155 317 -200 410 -45 94
-140 287 -210 430 -70 143 -167 341 -215 440 -185 381 -511 1050 -552 1132
l-21 42 -459 -1 c-252 -1 -461 -4 -463 -7z"/>
<path d="M5211 24896 l0 -2715 1810 1 1809 0 1 22 c1 26 1 833 0 864 l-1 22
-1355 0 -1355 0 2 677 3 678 1123 0 c617 0 1123 2 1123 5 1 3 2 204 3 448 1
387 -1 442 -14 443 -8 1 -514 2 -1125 3 l-1110 1 -3 678 -2 677 1355 0 1355 0
1 53 c0 28 1 232 1 452 l0 400 -1810 3 -1811 2 0 -2714z"/>
<path d="M20367 21354 c-1 -1 -49 -4 -107 -8 -107 -6 -166 -12 -210 -21 -14
-3 -34 -7 -45 -9 -85 -17 -247 -64 -315 -93 -391 -164 -649 -394 -815 -728
-118 -239 -165 -439 -167 -724 -1 -148 7 -240 33 -373 116 -598 518 -1030
1113 -1197 59 -17 133 -35 164 -41 31 -5 68 -12 81 -15 64 -12 189 -23 298
-26 323 -7 586 -144 710 -369 21 -38 61 -151 69 -196 11 -60 10 -182 -2 -265
-41 -278 -223 -486 -499 -568 -103 -30 -118 -33 -255 -36 -262 -8 -478 66
-624 212 -96 96 -164 263 -175 428 -1 7 -151 9 -434 8 -237 -1 -440 -2 -449
-2 -14 -1 -16 -11 -13 -73 23 -480 260 -910 655 -1188 60 -42 212 -125 275
-150 33 -12 64 -27 69 -32 6 -4 18 -8 28 -8 10 0 26 -4 36 -10 30 -17 154 -49
277 -71 90 -16 163 -22 290 -23 153 -1 304 7 337 19 7 2 31 7 53 10 106 15
287 75 425 141 404 193 699 520 835 925 41 124 59 206 81 364 8 62 9 313 1
380 -62 516 -298 873 -752 1142 -159 93 -442 187 -659 218 -20 3 -53 7 -73 10
-21 3 -85 8 -143 11 -58 2 -121 6 -140 9 -54 8 -164 37 -175 45 -5 5 -14 8
-18 8 -23 -2 -188 94 -246 142 -185 156 -276 351 -270 582 6 253 151 461 399
577 127 58 241 83 388 83 307 0 561 -125 693 -341 40 -66 78 -173 86 -241 3
-25 6 -54 7 -65 3 -20 12 -20 458 -23 l456 -2 -3 32 c-2 18 -6 69 -10 113 -6
87 -8 103 -30 217 -14 69 -53 203 -74 253 -81 192 -184 346 -323 485 -231 232
-594 405 -948 455 -25 3 -56 8 -70 10 -61 9 -267 24 -273 19z"/>
<path d="M1402 21265 c-11 -17 -8 -895 3 -896 5 0 615 -1 1355 -2 l1345 -2 0
-675 0 -675 -1127 0 -1128 0 0 -451 0 -451 1121 0 c616 0 1123 -4 1127 -8 4
-3 7 -308 7 -676 l0 -669 -25 0 c-14 0 -619 -1 -1346 -1 -727 -1 -1325 -4
-1330 -7 -6 -4 -10 -184 -10 -454 1 -393 3 -448 16 -449 88 -5 3579 -3 3590 2
13 6 15 315 14 2711 -1 1486 -2 2705 -3 2708 -2 11 -3603 6 -3609 -5z"/>
<path d="M5901 21270 c-4 -3 -7 -206 -7 -452 0 -443 1 -448 21 -449 11 0 462
-1 1003 -1 700 -1 982 -4 983 -12 0 -6 1 -1022 1 -2258 l1 -2248 21 -1 c138
-5 879 -2 883 4 4 6 7 5345 4 5412 -1 11 -2895 16 -2910 5z"/>
<path d="M11439 21255 c0 -11 -1 -590 -2 -1286 l-2 -1266 -41 -54 c-48 -64
-65 -87 -344 -479 -118 -166 -228 -321 -245 -345 -30 -45 -411 -579 -445 -625
-10 -14 -155 -216 -321 -450 -167 -234 -378 -531 -470 -660 -92 -129 -166
-236 -164 -239 3 -2 252 -4 553 -5 l549 -1 269 379 c148 208 274 384 279 390
6 6 19 25 29 41 10 17 35 53 56 80 20 28 144 201 275 385 131 184 251 353 267
375 16 22 51 72 78 110 27 39 53 75 57 80 4 6 21 29 37 52 16 24 32 40 37 38
4 -3 39 -49 77 -103 38 -53 230 -322 427 -597 197 -275 372 -520 390 -545 17
-25 119 -167 226 -315 107 -149 207 -290 224 -314 16 -24 37 -46 47 -50 13 -4
994 -6 1090 -2 16 1 17 3 2 20 -9 10 -98 133 -198 274 -99 140 -296 416 -436
612 -140 197 -267 374 -282 395 -60 86 -455 640 -506 710 -30 41 -126 176
-214 300 -87 124 -166 234 -174 245 -8 11 -53 74 -99 140 -47 66 -93 129 -102
140 -16 19 -17 105 -19 1300 -1 704 -2 1282 -3 1285 0 3 -203 6 -451 5 -444 0
-450 0 -451 -20z"/>
<path d="M16110 18978 l0 -2298 -570 0 -570 0 0 -415 c0 -325 3 -415 13 -416
6 0 722 -1 1589 -2 l1578 -2 0 418 0 417 -570 0 -570 0 0 2298 0 2298 -450 0
-450 0 0 -2298z"/>
<path d="M9929 15016 c-2 -3 -31 -7 -64 -10 -96 -9 -249 -43 -363 -81 -416
-140 -760 -433 -950 -812 -31 -61 -97 -232 -106 -274 -3 -13 -10 -44 -16 -69
-32 -130 -43 -227 -44 -395 -1 -165 5 -235 33 -373 65 -315 226 -585 478 -798
70 -59 224 -164 241 -164 6 0 12 -3 14 -8 5 -12 185 -92 277 -124 111 -38 298
-84 376 -93 6 0 39 -4 75 -9 36 -4 104 -9 151 -11 75 -2 119 -7 193 -21 91
-17 232 -82 333 -153 380 -269 419 -803 79 -1084 -81 -66 -212 -136 -286 -152
-8 -2 -37 -9 -65 -15 -280 -64 -621 17 -794 190 -41 41 -101 115 -101 124 0 5
-8 20 -18 34 -32 47 -65 152 -77 247 -3 27 -7 51 -9 52 -1 2 -205 4 -452 5
l-449 1 1 -54 c1 -61 11 -179 19 -224 34 -182 67 -289 130 -422 162 -344 436
-593 821 -747 100 -39 327 -101 414 -111 30 -3 67 -8 81 -11 145 -23 383 -18
559 12 108 18 116 19 170 34 531 140 924 485 1098 965 43 116 61 203 87 405 6
46 6 295 0 340 -2 19 -7 55 -10 80 -11 91 -38 208 -71 308 -170 521 -593 893
-1159 1018 -168 38 -274 51 -475 59 -58 3 -112 6 -120 8 -8 2 -42 9 -74 16
-285 62 -511 281 -554 536 -8 52 -8 208 1 265 30 199 131 364 285 469 155 104
297 141 527 136 231 -5 405 -65 536 -183 119 -108 177 -227 198 -402 l6 -55
451 -3 451 -2 -3 52 c-4 68 -14 173 -20 201 -42 221 -119 422 -225 587 -83
128 -229 285 -351 377 -219 165 -518 288 -778 320 -25 3 -63 8 -86 12 -42 8
-358 13 -365 7z"/>
<path d="M1400 14940 c-10 -6 -12 -5419 -2 -5421 36 -7 895 -2 899 5 8 12 8
5405 0 5412 -7 7 -886 11 -897 4z"/>
<path d="M3189 14942 c-13 -2 -15 -344 -14 -2715 l0 -2712 455 0 455 0 1 1915
c1 1053 2 1919 3 1924 0 5 21 -19 45 -55 46 -67 60 -86 130 -184 23 -33 88
-125 143 -205 179 -258 582 -835 590 -845 5 -5 25 -35 46 -65 20 -30 61 -89
90 -130 194 -278 296 -424 336 -481 25 -36 132 -188 236 -337 105 -150 241
-345 303 -435 63 -89 120 -171 128 -182 7 -11 41 -58 73 -105 33 -47 77 -110
99 -140 35 -50 447 -640 464 -664 10 -15 917 -15 919 -1 1 5 2 1226 3 2713 l1
2702 -25 1 c-14 0 -216 1 -450 1 l-425 0 0 -1921 c0 -1057 -3 -1920 -7 -1919
-6 3 -71 93 -189 263 -54 78 -717 1025 -768 1096 -14 20 -32 45 -39 55 -7 11
-49 72 -95 136 -45 65 -145 208 -222 318 -77 110 -183 261 -235 335 -126 179
-232 329 -305 435 -33 48 -88 128 -123 176 -34 49 -120 170 -189 269 -69 99
-147 209 -172 245 -25 36 -116 166 -202 289 l-157 224 -444 1 c-245 0 -451 0
-459 -2z"/>
<path d="M12333 14937 c-3 -5 -5 -192 -5 -415 l0 -407 569 -3 570 -2 1 -2293
c0 -1260 1 -2294 1 -2297 1 -4 871 -5 893 -1 3 0 7 1012 7 2249 0 1236 0 2268
1 2295 l0 47 569 0 569 0 1 415 0 415 -32 1 c-315 5 -3140 2 -3144 -4z"/>
<path d="M16393 14937 c-4 -6 -7 -5236 -4 -5397 l1 -25 453 0 452 0 1 2713 2
2712 -27 1 c-201 5 -874 2 -878 -4z"/>
<path d="M18179 14930 c-1 -19 -1 -779 0 -802 1 -17 35 -18 569 -18 l569 0 0
-2288 c0 -1259 2 -2293 5 -2298 5 -7 855 -12 889 -5 3 0 6 1028 7 2284 0 1255
1 2288 1 2295 1 9 122 12 570 12 l568 0 0 415 c0 413 0 415 -21 416 -12 0
-726 1 -1589 2 -1387 2 -1567 0 -1568 -13z"/>
<path d="M22239 14930 c-5 -84 0 -3739 5 -3811 7 -109 33 -271 51 -329 3 -10
7 -27 10 -37 22 -113 124 -334 220 -478 71 -107 101 -142 219 -260 259 -258
586 -430 986 -519 63 -14 138 -28 165 -31 28 -4 61 -8 75 -11 47 -7 225 -16
324 -16 528 3 1005 150 1361 419 342 259 565 641 631 1080 3 21 8 49 12 63 3
14 8 906 9 1983 l4 1957 -53 1 c-179 2 -850 0 -854 -3 -2 -2 -5 -868 -6 -1924
l-3 -1919 -22 -68 c-12 -37 -33 -92 -46 -121 -154 -337 -562 -554 -1044 -557
-514 -4 -902 210 -1058 581 -30 69 -71 232 -74 285 0 11 -1 854 -1 1873 -1
1440 -4 1852 -13 1853 -7 0 -211 1 -454 2 -388 2 -443 0 -444 -13z"/>
<path d="M27238 14942 l-48 -3 0 -415 0 -414 570 0 570 0 0 -2298 0 -2297 450
0 450 0 0 2297 0 2298 570 0 570 0 0 415 c0 388 -1 415 -17 416 -74 2 -3079 3
-3115 1z"/>
<path d="M31308 14942 l-56 -3 0 -2709 c0 -1491 3 -2711 6 -2711 4 -1 818 -2
1810 -3 l1802 -1 1 25 c1 31 1 873 0 880 -1 3 -610 5 -1353 5 l-1353 0 -3 677
-2 676 1107 0 c610 0 1117 1 1128 1 20 1 20 7 20 451 l0 450 -1127 0 -1128 0
0 675 c0 636 1 675 18 676 9 0 619 1 1355 1 981 0 1337 4 1338 12 4 66 0 888
-4 892 -6 6 -3452 12 -3559 6z"/>
</g>
</svg>
